<?xml version="1.0" encoding="utf-8"?>
<!-- Generator: Adobe Illustrator 15.1.0, SVG Export Plug-In . SVG Version: 6.00 Build 0)  -->
<!DOCTYPE svg PUBLIC "-//W3C//DTD SVG 1.1//EN" "http://www.w3.org/Graphics/SVG/1.1/DTD/svg11.dtd">
<svg version="1.1" id="Capa_1" xmlns="http://www.w3.org/2000/svg" xmlns:xlink="http://www.w3.org/1999/xlink" x="0px" y="0px"
	 width="315px" height="97px" viewBox="86 92.5 315 97" enable-background="new 86 92.5 315 97" xml:space="preserve">
<g id="_x23_000000ff">
	<path d="M94.474,100.37c1.435-1.523,3.767-1.844,5.82-1.921c7.386-0.003,14.772-0.007,22.158,0
		c2.061,0.077,4.393,0.437,5.813,1.983c1.555,1.899,1.566,4.433,1.524,6.72c-2.367,0.554-4.718,1.157-7.085,1.701
		c-0.007-1.351-0.017-2.705,0.021-4.057c-7.583-0.075-15.167-0.01-22.749-0.033c0,2.566,0,5.129,0.003,7.696
		c7.722,0.01,15.443-0.016,23.164,0.01c2.16,0.12,4.718,0.542,5.942,2.42c1.579,2.58,1.167,5.67,1.22,8.522
		c-0.048,2.854,0.353,5.936-1.196,8.535c-1.296,1.989-4.034,2.385-6.314,2.466c-7.95,0-15.899,0.003-23.852-0.003
		c-2.129-0.097-4.614-0.412-5.997-2.116c-1.555-2.168-1.461-4.919-1.438-7.42c2.357-0.521,4.718-1.033,7.085-1.517
		c0,1.417,0,2.835,0,4.251c8.208,0,16.417,0.003,24.625-0.003c0-2.726,0-5.45-0.003-8.175c-7.745-0.014-15.494,0.016-23.24-0.016
		c-2.226-0.11-4.9-0.609-6.027-2.641c-1.465-2.767-0.968-5.943-1.064-8.921C92.864,105.321,92.794,102.505,94.474,100.37z"/>
	<path d="M149.556,98.662c0.864-0.156,1.742-0.217,2.616-0.22c9.217,0.013,18.432-0.006,27.649,0.007
		c1.991,0.074,4.204,0.395,5.662,1.788c1.289,1.491,1.58,3.497,1.672,5.35c0.014,6.915-0.006,13.829,0.011,20.741
		c-0.024,2.159-0.194,4.54-1.683,6.296c-1.458,1.396-3.678,1.708-5.668,1.786c-9.097,0.013-18.197-0.006-27.294,0.009
		c-2.226-0.022-4.763-0.207-6.428-1.766c-1.331-1.475-1.587-3.513-1.701-5.373c-0.014-7.123,0.004-14.241-0.007-21.36
		c0.035-1.766,0.28-3.609,1.258-5.155C146.469,99.489,148.062,98.921,149.556,98.662 M152.428,104.848
		c-0.004,7.586-0.004,15.171-0.004,22.757c8.9,0.006,17.8,0.003,26.699,0.003c0-7.589,0.004-15.174-0.003-22.763
		C170.224,104.845,161.324,104.845,152.428,104.848z"/>
	<path d="M201.848,98.449c2.679-0.007,5.357-0.003,8.036-0.003c0,9.721,0,19.442,0,29.163c7.69,0,15.38,0.003,23.07-0.003
		c-0.003-9.721,0-19.439,0-29.156c2.679-0.007,5.357-0.003,8.036-0.003c-0.003,9.614,0.011,19.225-0.007,28.835
		c-0.114,1.889-0.383,3.966-1.776,5.44c-1.524,1.374-3.784,1.636-5.807,1.694c-8.073-0.009-16.15,0.003-24.225-0.006
		c-1.998-0.071-4.199-0.406-5.658-1.805c-1.365-1.572-1.59-3.711-1.672-5.661C201.851,117.446,201.845,107.946,201.848,98.449z"/>
	<path d="M256.802,98.449c10.165-0.007,20.33,0,30.491-0.007c2.218,0.02,4.766,0.619,5.982,2.528
		c1.476,2.258,0.923,5.002,1.027,7.508c-0.052,2.388,0.107,4.779-0.08,7.161c-0.218,1.834-1.292,3.668-3.148,4.442
		c-2.848,1.177-6.035,0.564-9.042,0.736c5.34,4.523,10.669,9.06,15.999,13.596c-3.906,0.003-7.811-0.003-11.717,0
		c-4.694-4.507-9.338-9.06-13.983-13.609c-2.527,0.003-5.054-0.003-7.58,0.003c0,4.533,0,9.07,0.003,13.603
		c-2.651,0.006-5.301,0.003-7.952,0C256.802,122.423,256.802,110.434,256.802,98.449 M264.761,104.679
		c-0.021,3.321-0.003,6.643-0.01,9.964c5.792,0,11.581,0.01,17.371-0.003c1.089-0.058,2.253,0.013,3.259-0.46
		c0.84-0.356,1.005-1.315,1.085-2.083c0.097-1.578,0.089-3.162,0.014-4.741c-0.076-0.813-0.218-1.837-1.11-2.216
		c-1.116-0.486-2.388-0.396-3.587-0.454C276.111,104.676,270.436,104.689,264.761,104.679z"/>
	<path d="M309.581,100.202c1.465-1.406,3.705-1.672,5.699-1.756c7.725,0,15.453-0.003,23.177,0.003
		c2.35,0.071,5.236,0.586,6.356,2.79c1.424,2.854,0.885,6.088,0.979,9.134c-2.675,0.434-5.344,0.897-8.019,1.315
		c-0.024-2.282-0.004-4.563-0.014-6.844c-7.286,0-14.568,0-21.854,0.003c-0.003,7.586-0.003,15.171-0.003,22.757
		c7.289,0.006,14.574,0.003,21.86,0.003c0.003-2.579-0.011-5.159,0.006-7.738c2.676,0.557,5.344,1.15,8.019,1.714
		c-0.076,2.754,0.276,5.55-0.338,8.269c-0.301,1.264-0.847,2.615-2.067,3.344c-1.749,1.085-3.926,1.238-5.965,1.222
		c-6.913-0.013-13.828-0.009-20.741-0.003c-2.368,0.017-5.046-0.051-6.923-1.591c-1.503-1.451-1.759-3.616-1.884-5.541
		c-0.01-7.239-0.007-14.478,0-21.717C307.971,103.707,308.251,101.676,309.581,100.202z"/>
	<path d="M360.488,98.449c11.81-0.003,23.616-0.003,35.426,0c0,2.051,0,4.099,0,6.15c-9.131,0.006-18.259,0-27.39,0.002
		c0,2.648-0.004,5.294,0.003,7.942c5.326-0.006,10.652-0.003,15.982-0.003c0,2.051-0.007,4.099,0.004,6.15
		c-5.33,0.019-10.66,0-15.986,0.006c-0.007,2.971-0.003,5.939-0.003,8.911c9.246,0,18.49-0.003,27.736,0.003
		c0,2.265,0,4.533,0,6.798c-11.924,0.003-23.848,0.006-35.771,0C360.488,122.423,360.488,110.434,360.488,98.449z"/>
	<path d="M145.909,150.28c1.58-1.348,3.854-1.568,5.896-1.613c7.611,0.01,15.225-0.003,22.835,0.006
		c2.347,0.072,5.226,0.586,6.349,2.784c1.424,2.857,0.888,6.095,0.974,9.144c-2.671,0.428-5.339,0.898-8.015,1.313
		c-0.021-2.281-0.003-4.563-0.014-6.844c-7.285,0-14.568,0-21.854,0.004c-0.003,7.586-0.003,15.17,0,22.756
		c7.285,0.007,14.571,0.003,21.857,0.003c0.004-2.578-0.007-5.157,0.007-7.736c2.672,0.554,5.337,1.152,8.012,1.708
		c-0.104,3.274,0.494,6.717-0.861,9.837c-1.013,2.346-4.016,2.932-6.432,2.993c-7.728,0.01-15.46,0.004-23.185,0.004
		c-2.077-0.085-4.455-0.37-5.896-1.935c-1.238-1.574-1.479-3.624-1.545-5.519c0.007-7.132-0.003-14.26,0.007-21.39
		C144.157,153.877,144.437,151.739,145.909,150.28z"/>
	<path d="M201.063,148.884c0.854-0.152,1.725-0.214,2.596-0.217c9.214,0.01,18.424-0.003,27.639,0.006
		c1.998,0.072,4.216,0.389,5.681,1.788c1.352,1.57,1.615,3.691,1.68,5.639c-0.013,7.136,0.008,14.271-0.009,21.409
		c-0.118,1.902-0.388,4.002-1.808,5.479c-1.482,1.27-3.591,1.575-5.523,1.646c-9.335,0.007-18.674,0.004-28.012,0.004
		c-2.063-0.085-4.417-0.373-5.859-1.912c-1.196-1.481-1.455-3.418-1.559-5.221c-0.014-7.128,0.003-14.256-0.006-21.386
		c0.038-1.759,0.287-3.596,1.265-5.133C197.973,149.711,199.566,149.143,201.063,148.884 M203.925,155.073
		c-0.003,7.586-0.003,15.17,0,22.759c8.896,0,17.796,0,26.696,0c0-7.589,0.003-15.173-0.004-22.763
		C221.721,155.069,212.821,155.069,203.925,155.073z"/>
	<path d="M253.69,148.673c7.863-0.006,15.727,0,23.585-0.006c4.987,0.076,10.224,1.441,13.794,4.87
		c3.583,3.373,4.932,8.308,4.797,12.959c0.128,5.533-2.056,11.405-6.84,14.869c-3.694,2.725-8.603,3.175-13.137,3.275
		c-7.4-0.01-14.8,0-22.2-0.007C253.69,172.647,253.69,160.658,253.69,148.673 M261.73,155.073
		c-0.006,7.586-0.004,15.17-0.004,22.759c4.151-0.021,8.306,0.066,12.457-0.09c3.342-0.165,6.902-0.593,9.67-2.505
		c2.796-2.037,3.678-5.56,3.633-8.729c0.1-3.095-0.612-6.455-3.028-8.712c-2.136-2.022-5.284-2.659-8.222-2.688
		C271.4,155.021,266.565,155.092,261.73,155.073z"/>
	<path d="M308.299,148.673c11.81-0.006,23.617-0.004,35.426,0c0,2.048,0,4.099,0,6.15c-9.131,0.007-18.259,0-27.391,0.004
		c0.003,2.647-0.014,5.297,0.01,7.944c5.327-0.016,10.648-0.007,15.975-0.007c0,2.052,0,4.104,0,6.154
		c-5.33,0.009-10.655,0-15.985,0.004c-0.003,2.971,0,5.938,0,8.909c9.246,0.004,18.491-0.003,27.736,0.004c0,2.265,0,4.533,0,6.798
		c-11.923,0.004-23.847,0.004-35.771,0C308.299,172.647,308.299,160.658,308.299,148.673z"/>
</g>
</svg>
